<?xml version="1.0"?>
<svg width="16" height="16" xmlns="http://www.w3.org/2000/svg">
 <g>
  <title>Layer 1</title>
  <path stroke="null" id="svg_1" d="m2.121446,11.348017c0,0.674121 0.29707,1.272072 0.761719,1.691017l0,1.35586c0,0.418944 0.342773,0.76172 0.761719,0.76172l0.76172,0c0.422754,0 0.761719,-0.342775 0.761719,-0.76172l0,-0.76172l6.093756,0l0,0.76172c0,0.418944 0.338965,0.76172 0.76172,0.76172l0.76172,0c0.418945,0 0.76172,-0.342775 0.76172,-0.76172l0,-1.35586c0.464648,-0.418945 0.761719,-1.016896 0.761719,-1.691017l0,-7.617193c0,-2.666018 -2.726955,-3.046878 -6.093756,-3.046878s-6.093755,0.380859 -6.093755,3.046878l0,7.617193zm2.666018,0.761719c-0.632227,0 -1.14258,-0.510352 -1.14258,-1.142578s0.510352,-1.14258 1.14258,-1.14258s1.142579,0.510352 1.142579,1.14258s-0.510352,1.142578 -1.142579,1.142578zm6.855474,0c-0.632227,0 -1.142578,-0.510352 -1.142578,-1.142578s0.510351,-1.14258 1.142578,-1.14258s1.14258,0.510352 1.14258,1.14258s-0.510353,1.142578 -1.14258,1.142578zm1.14258,-4.570315l-9.140634,0l0,-3.808597l9.140634,0l0,3.808597z"/>
 </g>
</svg>